<svg xmlns="http://www.w3.org/2000/svg" width="131" height="131" viewBox="0 0 131 131" fill="none">
  <path d="M0 20C0 8.95431 8.95431 0 20 0H111C122.046 0 131 8.95431 131 20V111C131 122.046 122.046 131 111 131H20C8.95431 131 0 122.046 0 111V20Z" fill="url(#paint0_linear_2768_1610)"/>
  <path d="M77.8 37.237C77.8 37.237 52.6 39.237 35.8 57.337C29 65.237 29 70.337 29 71.337C29 72.337 29.5 74.837 31 72.437C32.5 70.037 53 46.237 78.7 43.737C103.3 41.337 91.8 58.037 83.2 68.537C75 78.437 60.4 86.837 62.8 82.737C65.2 78.637 77.2 59.337 77.8 58.437C78.5 57.337 80.1 55.537 80 54.837C79.7 53.237 76.2 47.837 74.8 50.337C74.8 50.337 56.6 80.437 53.9 84.337C53.8 84.537 53.7 84.737 53.6 84.837C52.8 84.737 52.1 84.437 51.4 84.037C46.7 81.037 49.7 79.637 48.1 79.637C46.2 79.637 45.6 91.837 57.3 91.537C57.6 91.537 57.8 91.537 58.1 91.537C58.4 91.537 58.7 91.437 59 91.337C74.6 89.537 88.3 71.037 92.6 64.337C94.8 60.937 96.6 57.437 98.1 53.637C105.2 33.737 77.8 37.237 77.8 37.237Z" fill="white"/>
  <defs>
    <linearGradient id="paint0_linear_2768_1610" x1="65.5" y1="0" x2="65.5" y2="131" gradientUnits="userSpaceOnUse">
      <stop stop-color="#0F172A"/>
      <stop offset="1" stop-color="#020617"/>
    </linearGradient>
  </defs>
</svg>