<svg width="32" height="32" viewBox="0 0 32 32" fill="none" xmlns="http://www.w3.org/2000/svg">
  <rect width="32" height="32" rx="8" fill="url(#gradient)"/>
  <path d="M8 24V8h6.4c1.6 0 2.933.467 4 1.4 1.067.933 1.6 2.133 1.6 3.6 0 1.467-.533 2.667-1.6 3.6-1.067.933-2.4 1.4-4 1.4H12v6H8zm4-10h2.4c.533 0 .967-.2 1.3-.6.333-.4.5-.867.5-1.4s-.167-1-.5-1.4c-.333-.4-.767-.6-1.3-.6H12v4z" fill="white"/>
  <defs>
    <linearGradient id="gradient" x1="0" y1="0" x2="32" y2="32" gradientUnits="userSpaceOnUse">
      <stop stop-color="#0ea5e9"/>
      <stop offset="1" stop-color="#0284c7"/>
    </linearGradient>
  </defs>
</svg>