<svg version="1.1" id="Capa_1" xmlns="http://www.w3.org/2000/svg" xmlns:xlink="http://www.w3.org/1999/xlink" x="0px" y="0px" viewBox="0 0 288 156" style="enable-background:new 0 0 288 156;" xml:space="preserve" preserveAspectRatio="xMinYMid meet">
<style type="text/css">
	.st0{fill:#272831;}
</style>
<g>
	<g id="Grupo_18">
		<path id="Trazado_13477" class="st0" d="M81.8,60.3c0,0-25.2,2-42,20.1c-6.8,7.9-6.8,13-6.8,14s0.5,3.5,2,1.1s22-26.2,47.7-28.7
			c24.6-2.4,13.1,14.3,4.5,24.8c-8.2,9.9-22.8,18.3-20.4,14.2s14.4-23.4,15-24.3c0.7-1.1,2.3-2.9,2.2-3.6c-0.3-1.6-3.8-7-5.2-4.5
			c0,0-18.2,30.1-20.9,34c-0.1,0.2-0.2,0.4-0.3,0.5c-0.8-0.1-1.5-0.4-2.2-0.8c-4.7-3-1.7-4.4-3.3-4.4c-1.9,0-2.5,12.2,9.2,11.9l0,0
			c0.3,0,0.5,0,0.8,0s0.6-0.1,0.9-0.2c15.6-1.8,29.3-20.3,33.6-27c2.2-3.4,4-6.9,5.5-10.7C109.2,56.8,81.8,60.3,81.8,60.3"></path>
		<path id="Trazado_13478" class="st0" d="M171.5,65.1c-0.8-1.2-3.5-6-5.7-3.7S155.6,74,154.4,75.3c-1.2,1.3-0.8-0.3,0.2-1.9
			c1.1-1.7,2.8-4.4,3.7-5.4c1-0.9,1.1-2.3,0.3-3.3c-1.2-1.3-2.4-2.6-3.8-3.7c-1-1-2.6-1.1-3.7-0.1L151,61c-5.6,4-28,29.6-28,29.6
			c-2.2,2.3-0.3-2.2-0.3-2.2c3.7-8.7,12.7-19.6,14.9-19.9c2.1-0.3-0.7-4.3-1.9-5.6c-0.7-1-2.1-1.3-3.1-0.6c-0.2,0.2-0.4,0.4-0.6,0.6
			c-1.2,1.3-5.8,7-5.8,7s-2.7-3.9-4.8-4.7s-5.9,1.4-9.4,5.2c-5.2,5.4-9.2,11.7-12.1,18.7c-3.2,8.2,2.4,11.4,5.8,7.8
			s8.3-9.4,9.6-10.5c1.2-1.1-1.9,5.3,0,7.9c1.5,2.5,4.6,3.5,7.2,2.4c0.6-0.3,1.1-0.7,1.6-1.2c3.1-3.2,20.8-25,23.1-26.8
			c0,0,4.6-3.7,2.6,0.1c0,0-4.4,10.8-5.2,13.3s-1.1,4-0.1,5.3c0.9,1.3,4.2,6.8,5.9,3.7s11.3-16.6,19.1-23
			C171.3,66.5,172.3,66.3,171.5,65.1 M107.1,90.9c0,0-2,1,0-2.4c2-3.6,9.1-13.3,13-16.1s5.2-0.7,3.7,1.1
			C122.4,75.4,107.1,90.9,107.1,90.9"></path>
		<path id="Trazado_13479" class="st0" d="M249.2,45.8c-1.8-1.1-3.9,0-2.6,1c1.3,1,3.4,3.6,1.2,8.8s-9.2,19.3-24.3,25.6
			c-4.1,1.4-6.1,1.7-5.3-1.9c0,0,2.3-12.3,25.1-37.7c1.1-1,2.7-0.3,2-2.2s-3.8-6.7-5.9-4.3c-5.4,6-10.5,12.3-15,19
			c0,0.2-0.8,0.1-0.8,0.1s-3.6-5.2-6.8-3.7c-4.4,2.5-8.4,5.8-11.5,9.8c-0.9-1.1-1.9-2-2.8-1.8c-1.9,0.3-7.6,6.3-8.9,7.9
			c-1.3,1.6-1,0.6-0.4-2.2c0.6-2.8-1.9-4.8-5-6.2s-6.3,2.6-6.3,2.6s-1.8-1.7-3-0.8s-9.8,11.7-11.1,18.9s1.4,8.9,5.9,10.7
			c4.4,1.8,11.3-9.1,12.6-11c2.5-3.9,5.7-7.3,9.3-10.2c4.3-3.1,6.7-5.1,6.9-3.9c-2.5,3.8-4.5,8-5.8,12.4c-1.7,5.6,2.7,8.6,4.6,7
			c1.9-1.6,9.1-8.8,10.6-10.4s1.7-0.8,0.7,1.2s-2.1,6.7,1.2,9.7c3.4,2.9,7.5,4.4,13.7,2.1c6.2-2.4,27.7-17.8,27.4-30.8
			C255,55.1,255.5,49.7,249.2,45.8 M187.4,65c-1.8,6.6-9.7,15.5-11.5,17.4c-0.9,1-2.5,1.9-1.2-2.4s8.1-13.3,9.2-14.6
			c0.9-0.8,1-2.2,0.2-3.1l-0.1-0.1C185.1,61.3,189.2,58.3,187.4,65 M213.5,66.3c-4.2,4.3-8.6,9-9.4,9.6c-1,0.9-0.4-0.8,0.7-3
			c5-9.4,11.4-15.2,14.7-16.2c3.2-1,2.2,1.1,1,2.3C219.8,59.6,217,62.6,213.5,66.3"></path>
		<path id="Trazado_13480" class="st0" d="M114.6,118.9c3.6-2.5,19.5-13.2,49.7-15.9s29.9,0.9,30.2,2.1s7.1,1.9,3.2-1.1
			c-3.9-3-11.1-9.2-35.8-7.7c-17.9,1.4-35.4,5.4-52.1,11.9c-3.4,1.4-5.3,3-3.8,6.6s3.4,8.3,5.5,6.5
			C112.4,120.4,113.5,119.6,114.6,118.9"></path>
	</g>
</g>
</svg>